Topmarks-Bold 2.ufo
<glyph name="quotedbl" format="1">
  <advance width="815"/>
  <unicode hex="0022"/>
  <outline>
    <contour>
      <point x="508" y="908" type="line"/>
      <point x="466" y="1480" type="line"/>
      <point x="687" y="1480" type="line"/>
      <point x="657" y="908" type="line"/>
    </contour>
    <contour>
      <point x="170" y="908" type="line"/>
      <point x="128" y="1480" type="line"/>
      <point x="349" y="1480" type="line"/>
      <point x="319" y="908" type="line"/>
    </contour>
  </outline>
</glyph>
<glyph name="dollar" format="1">
  <advance width="1255"/>
  <unicode hex="0024"/>
  <outline>
    <contour>
      <point x="608" y="-213" type="line"/>
      <point x="610" y="1628" type="line"/>
      <point x="739" y="1628" type="line"/>
      <point x="739" y="-213" type="line"/>
    </contour>
    <component base="S" xOffset="10"/>
  </outline>
</glyph>
<glyph name="percent" format="1">
  <advance width="2294"/>
  <unicode hex="0025"/>
  <outline>
    <contour>
      <point x="492" y="581" type="curve" smooth="yes"/>
      <point x="734" y="581"/>
      <point x="910" y="750"/>
      <point x="910" y="1030" type="curve" smooth="yes"/>
      <point x="910" y="1295"/>
      <point x="765" y="1475"/>
      <point x="498" y="1475" type="curve" smooth="yes"/>
      <point x="255" y="1475"/>
      <point x="78" y="1306"/>
      <point x="78" y="1025" type="curve" smooth="yes"/>
      <point x="78" y="786"/>
      <point x="214" y="581"/>
    </contour>
    <contour>
      <point x="500" y="737" type="curve" smooth="yes"/>
      <point x="342" y="737"/>
      <point x="274" y="866"/>
      <point x="274" y="1027" type="curve" smooth="yes"/>
      <point x="274" y="1187"/>
      <point x="343" y="1320"/>
      <point x="501" y="1320" type="curve" smooth="yes"/>
      <point x="646" y="1320"/>
      <point x="724" y="1203"/>
      <point x="724" y="1031" type="curve" smooth="yes"/>
      <point x="724" y="872"/>
      <point x="655" y="737"/>
    </contour>
    <contour>
      <point x="1806" y="134" type="curve" smooth="yes"/>
      <point x="1648" y="134"/>
      <point x="1580" y="263"/>
      <point x="1580" y="424" type="curve" smooth="yes"/>
      <point x="1580" y="584"/>
      <point x="1649" y="717"/>
      <point x="1807" y="717" type="curve" smooth="yes"/>
      <point x="1952" y="717"/>
      <point x="2030" y="600"/>
      <point x="2030" y="428" type="curve" smooth="yes"/>
      <point x="2030" y="269"/>
      <point x="1961" y="134"/>
    </contour>
    <contour>
      <point x="1798" y="-22" type="curve" smooth="yes"/>
      <point x="2040" y="-22"/>
      <point x="2216" y="147"/>
      <point x="2216" y="427" type="curve" smooth="yes"/>
      <point x="2216" y="692"/>
      <point x="2071" y="872"/>
      <point x="1804" y="872" type="curve" smooth="yes"/>
      <point x="1561" y="872"/>
      <point x="1384" y="703"/>
      <point x="1384" y="422" type="curve" smooth="yes"/>
      <point x="1384" y="183"/>
      <point x="1520" y="-22"/>
    </contour>
    <contour>
      <point x="567" y="0" type="line"/>
      <point x="778" y="0" type="line"/>
      <point x="1741" y="1470" type="line"/>
      <point x="1539" y="1470" type="line"/>
    </contour>
  </outline>
</glyph>
<glyph name="period" format="1">
  <advance width="658"/>
  <unicode hex="002E"/>
  <outline>
    <contour>
      <point x="329" y="-12" type="curve" smooth="yes"/>
      <point x="233" y="-12"/>
      <point x="164" y="54"/>
      <point x="164" y="149" type="curve" smooth="yes"/>
      <point x="164" y="241"/>
      <point x="233" y="306"/>
      <point x="329" y="306" type="curve" smooth="yes"/>
      <point x="425" y="306"/>
      <point x="494" y="241"/>
      <point x="494" y="146" type="curve" smooth="yes"/>
      <point x="494" y="52"/>
      <point x="425" y="-12"/>
    </contour>
  </outline>
</glyph>
<glyph name="five" format="1">
  <advance width="1254"/>
  <unicode hex="0035"/>
  <outline>
    <contour>
      <point x="621" y="-24" type="curve" smooth="yes"/>
      <point x="476" y="-24"/>
      <point x="322" y="29"/>
      <point x="196" y="133" type="curve"/>
      <point x="286" y="322" type="line"/>
      <point x="412" y="224"/>
      <point x="520" y="184"/>
      <point x="606" y="184" type="curve" smooth="yes"/>
      <point x="763" y="184"/>
      <point x="863" y="313"/>
      <point x="863" y="459" type="curve" smooth="yes"/>
      <point x="863" y="639"/>
      <point x="757" y="731"/>
      <point x="644" y="733" type="curve"/>
      <point x="571" y="733"/>
      <point x="506" y="717"/>
      <point x="439" y="644" type="curve"/>
      <point x="264" y="644" type="line"/>
      <point x="264" y="1456" type="line"/>
      <point x="996" y="1456" type="line"/>
      <point x="996" y="1257" type="line"/>
      <point x="492" y="1257" type="line"/>
      <point x="478" y="851" type="line"/>
      <point x="520" y="885"/>
      <point x="588" y="929"/>
      <point x="711" y="929" type="curve" smooth="yes"/>
      <point x="900" y="929"/>
      <point x="1105" y="806"/>
      <point x="1105" y="466" type="curve" smooth="yes"/>
      <point x="1105" y="138"/>
      <point x="871" y="-24"/>
    </contour>
  </outline>
</glyph>
<glyph name="eight" format="1">
  <advance width="1254"/>
  <unicode hex="0038"/>
  <outline>
    <contour>
      <point x="979" y="682"/>
      <point x="1112.0" y="533.0"/>
      <point x="1112.0" y="353.0" type="curve" smooth="yes"/>
      <point x="1112.0" y="156.0"/>
      <point x="974.0" y="-24.0"/>
      <point x="633.0" y="-24.0" type="curve" smooth="yes"/>
      <point x="312.0" y="-24.0"/>
      <point x="155.0" y="135.0"/>
      <point x="155.0" y="360.0" type="curve" smooth="yes"/>
      <point x="155.0" y="539.0"/>
      <point x="250.0" y="653.0"/>
      <point x="546.0" y="805.0" type="curve" smooth="yes"/>
      <point x="801.0" y="936.0"/>
      <point x="838.0" y="993.0"/>
      <point x="838.0" y="1102.0" type="curve" smooth="yes"/>
      <point x="838.0" y="1219.0"/>
      <point x="750.0" y="1272.0"/>
      <point x="637.0" y="1272.0" type="curve" smooth="yes"/>
      <point x="515.0" y="1272.0"/>
      <point x="434.0" y="1211.0"/>
      <point x="434.0" y="1102.0" type="curve" smooth="yes"/>
      <point x="434.0" y="941.0"/>
      <point x="535" y="906"/>
      <point x="741" y="802" type="curve" smooth="yes"/>
    </contour>
    <contour>
      <point x="455.0" y="737.0"/>
      <point x="185.0" y="825.0"/>
      <point x="185.0" y="1107.0" type="curve" smooth="yes"/>
      <point x="185.0" y="1352.0"/>
      <point x="381.0" y="1480.0"/>
      <point x="633.0" y="1480.0" type="curve" smooth="yes"/>
      <point x="923.0" y="1480.0"/>
      <point x="1081.0" y="1305.0"/>
      <point x="1081.0" y="1107.0" type="curve" smooth="yes"/>
      <point x="1081.0" y="952.0"/>
      <point x="931" y="817"/>
      <point x="701" y="694" type="curve" smooth="yes"/>
      <point x="511" y="593"/>
      <point x="414.0" y="479.0"/>
      <point x="414.0" y="367.0" type="curve" smooth="yes"/>
      <point x="414.0" y="259.0"/>
      <point x="485.0" y="176.0"/>
      <point x="635.0" y="176.0" type="curve" smooth="yes"/>
      <point x="802.0" y="176.0"/>
      <point x="864.0" y="259.0"/>
      <point x="864.0" y="364.0" type="curve" smooth="yes"/>
      <point x="864.0" y="480.0"/>
      <point x="825.0" y="547.0"/>
      <point x="547.0" y="690.0" type="curve" smooth="yes"/>
    </contour>
  </outline>
</glyph>
<glyph name="semicolon" format="1">
  <advance width="679"/>
  <unicode hex="003B"/>
  <outline>
    <contour>
      <point x="246" y="779" type="line"/>
      <point x="246" y="1026" type="line"/>
      <point x="501" y="1026" type="line"/>
      <point x="501" y="779" type="line"/>
    </contour>
    <contour>
      <point x="156" y="-297" type="line"/>
      <point x="246" y="255" type="line"/>
      <point x="501" y="255" type="line"/>
      <point x="310" y="-297" type="line"/>
    </contour>
  </outline>
</glyph>
<glyph name="at" format="1">
  <advance width="1811"/>
  <unicode hex="0040"/>
  <outline>
    <contour>
      <point x="953" y="-64" type="curve" smooth="yes"/>
      <point x="1127" y="-64"/>
      <point x="1324" y="-24"/>
      <point x="1482" y="71" type="curve"/>
      <point x="1401" y="200" type="line"/>
      <point x="1278" y="129"/>
      <point x="1119" y="89"/>
      <point x="981" y="89" type="curve" smooth="yes"/>
      <point x="598" y="89"/>
      <point x="302" y="311"/>
      <point x="302" y="726" type="curve" smooth="yes"/>
      <point x="302" y="1140"/>
      <point x="608" y="1369"/>
      <point x="964" y="1369" type="curve" smooth="yes"/>
      <point x="1274" y="1369"/>
      <point x="1539" y="1172"/>
      <point x="1539" y="837" type="curve" smooth="yes"/>
      <point x="1539" y="544"/>
      <point x="1390" y="431"/>
      <point x="1290" y="431" type="curve" smooth="yes"/>
      <point x="1244" y="431"/>
      <point x="1208" y="468"/>
      <point x="1208" y="528" type="curve" smooth="yes"/>
      <point x="1208" y="545"/>
      <point x="1257" y="792"/>
      <point x="1330" y="1146" type="curve"/>
      <point x="1189" y="1146" type="line"/>
      <point x="1150" y="1041" type="line"/>
      <point x="1122" y="1123"/>
      <point x="1060" y="1188"/>
      <point x="919" y="1177" type="curve" smooth="yes"/>
      <point x="722" y="1162"/>
      <point x="521" y="946"/>
      <point x="521" y="668" type="curve" smooth="yes"/>
      <point x="521" y="432"/>
      <point x="636" y="299"/>
      <point x="793" y="299" type="curve" smooth="yes"/>
      <point x="888" y="299"/>
      <point x="1006" y="365"/>
      <point x="1076" y="506" type="curve"/>
      <point x="1067" y="362"/>
      <point x="1167" y="298"/>
      <point x="1275" y="298" type="curve" smooth="yes"/>
      <point x="1521" y="298"/>
      <point x="1700" y="511"/>
      <point x="1700" y="832" type="curve" smooth="yes"/>
      <point x="1700" y="1290"/>
      <point x="1338" y="1514"/>
      <point x="966" y="1514" type="curve" smooth="yes"/>
      <point x="534" y="1514"/>
      <point x="111" y="1244"/>
      <point x="111" y="721" type="curve" smooth="yes"/>
      <point x="111" y="214"/>
      <point x="516" y="-64"/>
    </contour>
    <contour>
      <point x="826" y="465" type="curve" smooth="yes"/>
      <point x="752" y="465"/>
      <point x="689" y="526"/>
      <point x="689" y="651" type="curve" smooth="yes"/>
      <point x="689" y="883"/>
      <point x="842" y="1023"/>
      <point x="956" y="1023" type="curve" smooth="yes"/>
      <point x="1021" y="1023"/>
      <point x="1074" y="975"/>
      <point x="1074" y="868" type="curve" smooth="yes"/>
      <point x="1074" y="601"/>
      <point x="936" y="465"/>
    </contour>
  </outline>
</glyph>
<glyph name="A" format="1">
  <advance width="1408"/>
  <unicode hex="0041"/>
  <outline>
    <contour>
      <point x="50.5" y="0" type="line"/>
      <point x="324.5" y="0" type="line"/>
      <point x="437.5" y="335" type="line"/>
      <point x="963.5" y="335" type="line"/>
      <point x="1072.5" y="0" type="line"/>
      <point x="1357.5" y="0" type="line"/>
      <point x="829" y="1456" type="line"/>
      <point x="589" y="1456" type="line"/>
    </contour>
    <contour>
      <point x="504.5" y="533" type="line"/>
      <point x="578" y="758" type="line"/>
      <point x="703" y="1129" type="line"/>
      <point x="828" y="758" type="line"/>
      <point x="898.5" y="533" type="line"/>
    </contour>
  </outline>
</glyph>
<glyph name="B" format="1">
  <advance width="1368"/>
  <unicode hex="0042"/>
  <outline>
    <contour>
      <point x="186" y="0" type="line"/>
      <point x="186" y="1456" type="line"/>
      <point x="633" y="1456" type="line" smooth="yes"/>
      <point x="1015" y="1456"/>
      <point x="1203" y="1353"/>
      <point x="1203" y="1108" type="curve" smooth="yes"/>
      <point x="1203" y="928"/>
      <point x="1132" y="830"/>
      <point x="966" y="782" type="curve"/>
      <point x="1175" y="747"/>
      <point x="1264" y="637"/>
      <point x="1264" y="424" type="curve" smooth="yes"/>
      <point x="1264" y="131"/>
      <point x="1078" y="0"/>
      <point x="697" y="0" type="curve" smooth="yes"/>
    </contour>
    <contour>
      <point x="436" y="201" type="line"/>
      <point x="700" y="201" type="line" smooth="yes"/>
      <point x="923" y="201"/>
      <point x="1018" y="272"/>
      <point x="1018" y="437" type="curve" smooth="yes"/>
      <point x="1018" y="594"/>
      <point x="918" y="664"/>
      <point x="685" y="664" type="curve" smooth="yes"/>
      <point x="436" y="664" type="line"/>
    </contour>
    <contour>
      <point x="436" y="848" type="line"/>
      <point x="656" y="848" type="line" smooth="yes"/>
      <point x="871" y="848"/>
      <point x="961" y="915"/>
      <point x="961" y="1070" type="curve" smooth="yes"/>
      <point x="961" y="1203"/>
      <point x="867" y="1256"/>
      <point x="643" y="1256" type="curve" smooth="yes"/>
      <point x="436" y="1256" type="line"/>
    </contour>
  </outline>
</glyph>
<glyph name="F" format="1">
  <advance width="1151"/>
  <unicode hex="0046"/>
  <outline>
    <contour>
      <point x="186" y="0" type="line"/>
      <point x="186" y="1456" type="line"/>
      <point x="1027" y="1456" type="line"/>
      <point x="1027" y="1256" type="line"/>
      <point x="436" y="1256" type="line"/>
      <point x="436" y="865" type="line"/>
      <point x="994" y="865" type="line"/>
      <point x="994" y="672" type="line"/>
      <point x="436" y="672" type="line"/>
      <point x="436" y="0" type="line"/>
    </contour>
  </outline>
</glyph>
<glyph name="G" format="1">
  <advance width="1486"/>
  <unicode hex="0047"/>
  <outline>
    <contour>
      <point x="828" y="-24" type="curve" smooth="yes"/>
      <point x="400" y="-24"/>
      <point x="108" y="256"/>
      <point x="108" y="687" type="curve" smooth="yes"/>
      <point x="108" y="1159"/>
      <point x="414" y="1480"/>
      <point x="850" y="1480" type="curve" smooth="yes"/>
      <point x="1093" y="1480"/>
      <point x="1233" y="1403"/>
      <point x="1316" y="1351" type="curve"/>
      <point x="1229" y="1162" type="line"/>
      <point x="1176" y="1191"/>
      <point x="1026" y="1272"/>
      <point x="859" y="1272" type="curve" smooth="yes"/>
      <point x="556" y="1272"/>
      <point x="374" y="1033"/>
      <point x="374" y="701" type="curve" smooth="yes"/>
      <point x="374" y="391"/>
      <point x="554" y="184"/>
      <point x="840" y="184" type="curve" smooth="yes"/>
      <point x="935" y="184"/>
      <point x="1025" y="198"/>
      <point x="1088" y="227" type="curve"/>
      <point x="1088" y="595" type="line"/>
      <point x="804" y="595" type="line"/>
      <point x="804" y="773" type="line"/>
      <point x="1332" y="773" type="line"/>
      <point x="1332" y="78" type="line"/>
      <point x="1200" y="16"/>
      <point x="997" y="-24"/>
    </contour>
  </outline>
</glyph>
<glyph name="K" format="1">
  <advance width="1279"/>
  <unicode hex="004B"/>
  <outline>
    <contour>
      <point x="186" y="0" type="line"/>
      <point x="186" y="1456" type="line"/>
      <point x="436" y="1456" type="line"/>
      <point x="436" y="822" type="line"/>
      <point x="945" y="1456" type="line"/>
      <point x="1249" y="1456" type="line"/>
      <point x="673" y="773" type="line"/>
      <point x="1283" y="0" type="line"/>
      <point x="964" y="0" type="line"/>
      <point x="436" y="681" type="line"/>
      <point x="436" y="0" type="line"/>
    </contour>
  </outline>
</glyph>
<glyph name="M" format="1">
  <advance width="1877"/>
  <unicode hex="004D"/>
  <outline>
    <contour>
      <point x="186" y="0" type="line"/>
      <point x="186" y="1456" type="line"/>
      <point x="479" y="1456" type="line"/>
      <point x="857" y="741" type="line"/>
      <point x="938.5" y="569" type="line"/>
      <point x="1019" y="743" type="line"/>
      <point x="1399" y="1456" type="line"/>
      <point x="1691" y="1456" type="line"/>
      <point x="1691" y="0" type="line"/>
      <point x="1441" y="0" type="line"/>
      <point x="1441" y="1085" type="line"/>
      <point x="1336" y="871" type="line"/>
      <point x="992.5" y="229" type="line"/>
      <point x="879.5" y="229" type="line"/>
      <point x="540" y="883" type="line"/>
      <point x="436" y="1102" type="line"/>
      <point x="436" y="0" type="line"/>
    </contour>
  </outline>
</glyph>
<glyph name="N" format="1">
  <advance width="1605"/>
  <unicode hex="004E"/>
  <outline>
    <contour>
      <point x="186" y="0" type="line"/>
      <point x="186" y="1456" type="line"/>
      <point x="447" y="1456" type="line"/>
      <point x="1082" y="520" type="line"/>
      <point x="1199" y="340" type="line"/>
      <point x="1199" y="1456" type="line"/>
      <point x="1419" y="1456" type="line"/>
      <point x="1419" y="0" type="line"/>
      <point x="1154" y="0" type="line"/>
      <point x="515" y="951" type="line"/>
      <point x="406" y="1113" type="line"/>
      <point x="406" y="0" type="line"/>
    </contour>
  </outline>
</glyph>
<glyph name="P" format="1">
  <advance width="1272.0"/>
  <unicode hex="0050"/>
  <outline>
    <contour>
      <point x="186.0" y="0.0" type="line"/>
      <point x="186.0" y="1456" type="line"/>
      <point x="606.0" y="1456" type="line" smooth="yes"/>
      <point x="1019.0" y="1456"/>
      <point x="1207.0" y="1330.0"/>
      <point x="1207.0" y="1017.0" type="curve" smooth="yes"/>
      <point x="1207.0" y="689.0"/>
      <point x="1025.0" y="559.0"/>
      <point x="629.0" y="559.0" type="curve" smooth="yes"/>
      <point x="436.0" y="559.0" type="line"/>
      <point x="436.0" y="0.0" type="line"/>
    </contour>
    <contour>
      <point x="436.0" y="762.0" type="line"/>
      <point x="646.0" y="762.0" type="line" smooth="yes"/>
      <point x="854.0" y="762.0"/>
      <point x="951.0" y="829.0"/>
      <point x="951.0" y="1015.0" type="curve" smooth="yes"/>
      <point x="951.0" y="1192.0"/>
      <point x="847.0" y="1256"/>
      <point x="628.0" y="1256" type="curve" smooth="yes"/>
      <point x="436.0" y="1256" type="line"/>
    </contour>
  </outline>
</glyph>
<glyph name="Q" format="1">
  <advance width="1576"/>
  <unicode hex="0051"/>
  <outline>
    <contour>
      <point x="1233.0" y="-425.0" type="line"/>
      <point x="951.0" y="13.0" type="line"/>
      <point x="1157" y="86" type="line"/>
      <point x="1411" y="-312" type="line"/>
    </contour>
    <component base="O"/>
  </outline>
</glyph>
<glyph name="X" format="1">
  <advance width="1317"/>
  <unicode hex="0058"/>
  <outline>
    <contour>
      <point x="1033" y="0" type="line"/>
      <point x="658" y="564" type="line"/>
      <point x="270" y="0" type="line"/>
      <point x="-4" y="0" type="line"/>
      <point x="535" y="751" type="line"/>
      <point x="45" y="1456" type="line"/>
      <point x="323" y="1456" type="line"/>
      <point x="682" y="908" type="line"/>
      <point x="1048" y="1456" type="line"/>
      <point x="1321" y="1456" type="line"/>
      <point x="805" y="720" type="line"/>
      <point x="1304" y="0" type="line"/>
    </contour>
  </outline>
</glyph>
<glyph name="bracketleft" format="1">
  <advance width="918"/>
  <unicode hex="005B"/>
  <outline>
    <contour>
      <point x="257" y="-214" type="line"/>
      <point x="257" y="1470" type="line"/>
      <point x="708" y="1470" type="line"/>
      <point x="708" y="1340" type="line"/>
      <point x="516" y="1340" type="line"/>
      <point x="516" y="-85" type="line"/>
      <point x="708" y="-85" type="line"/>
      <point x="708" y="-214" type="line"/>
    </contour>
  </outline>
</glyph>
<glyph name="bracketright" format="1">
  <advance width="1115"/>
  <unicode hex="005D"/>
  <outline>
    <contour>
      <point x="176" y="-232" type="line"/>
      <point x="176" y="-103" type="line"/>
      <point x="369" y="-103" type="line"/>
      <point x="369" y="1340" type="line"/>
      <point x="177" y="1340" type="line"/>
      <point x="177" y="1470" type="line"/>
      <point x="627" y="1470" type="line"/>
      <point x="627" y="-232" type="line"/>
    </contour>
  </outline>
</glyph>
<glyph name="a" format="1">
  <advance width="1197"/>
  <unicode hex="0061"/>
  <outline>
    <contour>
      <point x="518" y="-22" type="curve" smooth="yes"/>
      <point x="640" y="-22"/>
      <point x="752" y="46"/>
      <point x="804" y="151" type="curve"/>
      <point x="858" y="-7"/>
      <point x="984" y="-16"/>
      <point x="1131" y="-16" type="curve"/>
      <point x="1163" y="176" type="line"/>
      <point x="1010" y="176"/>
      <point x="1004" y="253"/>
      <point x="1004" y="363" type="curve" smooth="yes"/>
      <point x="1004" y="976" type="line"/>
      <point x="960" y="994"/>
      <point x="824" y="1052"/>
      <point x="668" y="1047" type="curve" smooth="yes"/>
      <point x="337" y="1037"/>
      <point x="104" y="793"/>
      <point x="104" y="431" type="curve" smooth="yes"/>
      <point x="104" y="170"/>
      <point x="281" y="-22"/>
    </contour>
    <contour>
      <point x="535" y="164" type="curve" smooth="yes"/>
      <point x="428" y="164"/>
      <point x="352" y="288"/>
      <point x="352" y="440" type="curve" smooth="yes"/>
      <point x="352" y="665"/>
      <point x="469" y="848"/>
      <point x="631" y="861" type="curve" smooth="yes"/>
      <point x="706" y="867"/>
      <point x="762" y="849"/>
      <point x="762" y="849" type="curve"/>
      <point x="762" y="429" type="line" smooth="yes"/>
      <point x="762" y="286"/>
      <point x="677" y="164"/>
    </contour>
  </outline>
</glyph>
<glyph name="c" format="1">
  <advance width="1023"/>
  <unicode hex="0063"/>
  <outline>
    <contour>
      <point x="104" y="148"/>
      <point x="335" y="-22"/>
      <point x="611" y="-22" type="curve" smooth="yes"/>
      <point x="724" y="-22"/>
      <point x="845" y="5"/>
      <point x="959" y="81" type="curve"/>
      <point x="886" y="236" type="line"/>
      <point x="804" y="183"/>
      <point x="713" y="164"/>
      <point x="638" y="164" type="curve" smooth="yes"/>
      <point x="496" y="164"/>
      <point x="352" y="248"/>
      <point x="352" y="520" type="curve" smooth="yes"/>
      <point x="352" y="743"/>
      <point x="465" y="862"/>
      <point x="635" y="862" type="curve" smooth="yes"/>
      <point x="700" y="862"/>
      <point x="785" y="841"/>
      <point x="864" y="798" type="curve"/>
      <point x="929" y="960" type="line"/>
      <point x="832" y="1023"/>
      <point x="718" y="1048"/>
      <point x="617" y="1048" type="curve" smooth="yes"/>
      <point x="344" y="1048"/>
      <point x="104" y="883"/>
      <point x="104" y="519" type="curve" smooth="yes"/>
    </contour>
  </outline>
</glyph>
<glyph name="g" format="1">
  <advance width="1186"/>
  <unicode hex="0067"/>
  <outline>
    <contour>
      <point x="549" y="-543" type="curve" smooth="yes"/>
      <point x="822" y="-543"/>
      <point x="1046" y="-341"/>
      <point x="1046" y="15" type="curve" smooth="yes"/>
      <point x="1046" y="942" type="line"/>
      <point x="950" y="998"/>
      <point x="783" y="1048"/>
      <point x="656" y="1048" type="curve" smooth="yes"/>
      <point x="323" y="1048"/>
      <point x="104" y="806"/>
      <point x="104" y="460" type="curve" smooth="yes"/>
      <point x="104" y="199"/>
      <point x="286" y="0"/>
      <point x="530" y="0" type="curve" smooth="yes"/>
      <point x="626" y="0"/>
      <point x="736" y="36"/>
      <point x="804" y="129" type="curve"/>
      <point x="804" y="-3" type="line" smooth="yes"/>
      <point x="804" y="-244"/>
      <point x="666" y="-348"/>
      <point x="526" y="-348" type="curve" smooth="yes"/>
      <point x="420" y="-348"/>
      <point x="299" y="-301"/>
      <point x="205" y="-241" type="curve"/>
      <point x="173" y="-450" type="line"/>
      <point x="311" y="-512"/>
      <point x="438" y="-543"/>
    </contour>
    <contour>
      <point x="559" y="191" type="curve" smooth="yes"/>
      <point x="448" y="191"/>
      <point x="352" y="318"/>
      <point x="352" y="470" type="curve" smooth="yes"/>
      <point x="352" y="725"/>
      <point x="488" y="862"/>
      <point x="657" y="862" type="curve" smooth="yes"/>
      <point x="710" y="862"/>
      <point x="768" y="851"/>
      <point x="804" y="837" type="curve"/>
      <point x="804" y="545" type="line" smooth="yes"/>
      <point x="804" y="352"/>
      <point x="707" y="191"/>
    </contour>
  </outline>
</glyph>
<glyph name="j" format="1">
  <advance width="661"/>
  <unicode hex="006A"/>
  <outline>
    <contour>
      <point x="372" y="1188" type="curve" smooth="yes"/>
      <point x="471" y="1188"/>
      <point x="535" y="1242"/>
      <point x="535" y="1333" type="curve" smooth="yes"/>
      <point x="535" y="1424"/>
      <point x="471" y="1480"/>
      <point x="374" y="1480" type="curve" smooth="yes"/>
      <point x="274" y="1480"/>
      <point x="211" y="1426"/>
      <point x="211" y="1334" type="curve" smooth="yes"/>
      <point x="211" y="1242"/>
      <point x="274" y="1188"/>
    </contour>
    <contour>
      <point x="112" y="-499" type="curve" smooth="yes"/>
      <point x="418" y="-499"/>
      <point x="482" y="-325"/>
      <point x="482" y="-93" type="curve" smooth="yes"/>
      <point x="482" y="1026" type="line"/>
      <point x="240" y="1026" type="line"/>
      <point x="240" y="-90" type="line" smooth="yes"/>
      <point x="240" y="-280"/>
      <point x="188" y="-323"/>
      <point x="90" y="-323" type="curve" smooth="yes"/>
      <point x="22" y="-323"/>
      <point x="-43" y="-305"/>
      <point x="-43" y="-305" type="curve"/>
      <point x="-64" y="-475" type="line"/>
      <point x="-64" y="-475"/>
      <point x="9" y="-499"/>
    </contour>
  </outline>
</glyph>
<glyph name="m" format="1">
  <advance width="1871"/>
  <unicode hex="006D"/>
  <outline>
    <contour>
      <point x="1821" y="-16" type="line"/>
      <point x="1855" y="176" type="line"/>
      <point x="1830" y="176" type="line" smooth="yes"/>
      <point x="1716" y="176"/>
      <point x="1694" y="237"/>
      <point x="1694" y="357" type="curve" smooth="yes"/>
      <point x="1694" y="608" type="line" smooth="yes"/>
      <point x="1694" y="875"/>
      <point x="1552" y="1048"/>
      <point x="1316" y="1048" type="curve" smooth="yes"/>
      <point x="1222" y="1048"/>
      <point x="1077" y="1008"/>
      <point x="995" y="862" type="curve"/>
      <point x="947" y="964"/>
      <point x="849" y="1048"/>
      <point x="703" y="1048" type="curve" smooth="yes"/>
      <point x="579" y="1048"/>
      <point x="444" y="997"/>
      <point x="383" y="881" type="curve"/>
      <point x="370" y="930"/>
      <point x="321" y="998"/>
      <point x="283" y="1026" type="curve"/>
      <point x="56" y="937" type="line"/>
      <point x="151" y="858"/>
      <point x="182" y="742"/>
      <point x="182" y="641" type="curve" smooth="yes"/>
      <point x="182" y="0" type="line"/>
      <point x="424" y="0" type="line"/>
      <point x="424" y="591" type="line" smooth="yes"/>
      <point x="424" y="747"/>
      <point x="508" y="862"/>
      <point x="632" y="862" type="curve" smooth="yes"/>
      <point x="740" y="862"/>
      <point x="821" y="779"/>
      <point x="821" y="606" type="curve" smooth="yes"/>
      <point x="821" y="0" type="line"/>
      <point x="1063" y="0" type="line"/>
      <point x="1063" y="614" type="line" smooth="yes"/>
      <point x="1063" y="762"/>
      <point x="1154" y="862"/>
      <point x="1260" y="862" type="curve" smooth="yes"/>
      <point x="1390" y="862"/>
      <point x="1452" y="759"/>
      <point x="1452" y="606" type="curve" smooth="yes"/>
      <point x="1452" y="339" type="line" smooth="yes"/>
      <point x="1452" y="117"/>
      <point x="1525" y="-16"/>
      <point x="1791" y="-16" type="curve" smooth="yes"/>
    </contour>
  </outline>
</glyph>
<glyph name="n" format="1">
  <advance width="1257"/>
  <unicode hex="006E"/>
  <outline>
    <contour>
      <point x="1241" y="176" type="line"/>
      <point x="1224" y="176" type="line" smooth="yes"/>
      <point x="1103" y="176"/>
      <point x="1080" y="236"/>
      <point x="1080" y="345" type="curve" smooth="yes"/>
      <point x="1080" y="608" type="line" smooth="yes"/>
      <point x="1080" y="875"/>
      <point x="949" y="1048"/>
      <point x="720" y="1048" type="curve" smooth="yes"/>
      <point x="563" y="1048"/>
      <point x="435" y="967"/>
      <point x="386" y="873" type="curve"/>
      <point x="374" y="919"/>
      <point x="330" y="989"/>
      <point x="282" y="1026" type="curve"/>
      <point x="56" y="937" type="line"/>
      <point x="143" y="860"/>
      <point x="185" y="764"/>
      <point x="185" y="643" type="curve" smooth="yes"/>
      <point x="185" y="0" type="line"/>
      <point x="427" y="0" type="line"/>
      <point x="427" y="592" type="line" smooth="yes"/>
      <point x="427" y="767"/>
      <point x="548" y="862"/>
      <point x="661" y="862" type="curve" smooth="yes"/>
      <point x="795" y="862"/>
      <point x="838" y="757"/>
      <point x="838" y="604" type="curve" smooth="yes"/>
      <point x="838" y="368" type="line" smooth="yes"/>
      <point x="838" y="121"/>
      <point x="911" y="-16"/>
      <point x="1172" y="-16" type="curve" smooth="yes"/>
      <point x="1207" y="-16" type="line"/>
    </contour>
  </outline>
</glyph>
<glyph name="w" format="1">
  <advance width="1633"/>
  <unicode hex="0077"/>
  <outline>
    <contour>
      <point x="416.5" y="0" type="line"/>
      <point x="619.5" y="0" type="line"/>
      <point x="819.5" y="582" type="line"/>
      <point x="1029.5" y="0" type="line"/>
      <point x="1232.5" y="0" type="line"/>
      <point x="1613" y="1026" type="line"/>
      <point x="1365" y="1026" type="line"/>
      <point x="1183.5" y="484" type="line"/>
      <point x="1129.5" y="325" type="line"/>
      <point x="1072.5" y="484" type="line"/>
      <point x="900" y="995" type="line"/>
      <point x="728" y="995" type="line"/>
      <point x="570.5" y="484" type="line"/>
      <point x="515.5" y="325" type="line"/>
      <point x="459.5" y="484" type="line"/>
      <point x="275" y="1026" type="line"/>
      <point x="21" y="1026" type="line"/>
    </contour>
  </outline>
</glyph>
<glyph name="x" format="1">
  <advance width="1103"/>
  <unicode hex="0078"/>
  <outline>
    <contour>
      <point x="24.5" y="0" type="line"/>
      <point x="419" y="535" type="line"/>
      <point x="70" y="1026" type="line"/>
      <point x="355" y="1026" type="line"/>
      <point x="574" y="697" type="line"/>
      <point x="783" y="1026" type="line"/>
      <point x="1062" y="1026" type="line"/>
      <point x="698" y="520" type="line"/>
      <point x="1078.5" y="0" type="line"/>
      <point x="775.5" y="0" type="line"/>
      <point x="538" y="361" type="line"/>
      <point x="290.5" y="0" type="line"/>
    </contour>
  </outline>
</glyph>
<glyph name="y" format="1">
  <advance width="1242"/>
  <unicode hex="0079"/>
  <outline>
    <contour>
      <point x="564" y="-542" type="curve" smooth="yes"/>
      <point x="830" y="-542"/>
      <point x="1081" y="-401"/>
      <point x="1082" y="-6" type="curve"/>
      <point x="1082" y="1026" type="line"/>
      <point x="840" y="1026" type="line"/>
      <point x="840" y="503" type="line" smooth="yes"/>
      <point x="840" y="300"/>
      <point x="760" y="170"/>
      <point x="602" y="170" type="curve" smooth="yes"/>
      <point x="488" y="170"/>
      <point x="417" y="247"/>
      <point x="417" y="381" type="curve" smooth="yes"/>
      <point x="417" y="607" type="line"/>
      <point x="422" y="914"/>
      <point x="361" y="1026"/>
      <point x="361" y="1026" type="curve"/>
      <point x="116" y="996" type="line"/>
      <point x="116" y="996"/>
      <point x="175" y="874"/>
      <point x="175" y="594" type="curve" smooth="yes"/>
      <point x="175" y="355" type="line" smooth="yes"/>
      <point x="175" y="130"/>
      <point x="329" y="-22"/>
      <point x="558" y="-22" type="curve" smooth="yes"/>
      <point x="769" y="-22"/>
      <point x="858" y="86"/>
      <point x="900" y="184" type="curve"/>
      <point x="840" y="187" type="line"/>
      <point x="840" y="-44" type="line" smooth="yes"/>
      <point x="840" y="-283"/>
      <point x="668" y="-335"/>
      <point x="545" y="-335" type="curve" smooth="yes"/>
      <point x="459" y="-335"/>
      <point x="338" y="-303"/>
      <point x="251" y="-259" type="curve"/>
      <point x="205" y="-459" type="line"/>
      <point x="321" y="-513"/>
      <point x="450" y="-542"/>
    </contour>
  </outline>
</glyph>
<glyph name="braceleft" format="1">
  <advance width="1114"/>
  <unicode hex="007B"/>
  <outline>
    <contour>
      <point x="725" y="-456" type="curve"/>
      <point x="725" y="-308" type="line"/>
      <point x="689" y="-308"/>
      <point x="658" y="-304"/>
      <point x="634" y="-295" type="curve" smooth="yes"/>
      <point x="544" y="-264"/>
      <point x="534" y="-154"/>
      <point x="534" y="-27" type="curve" smooth="yes"/>
      <point x="534" y="50"/>
      <point x="535" y="155"/>
      <point x="535" y="230" type="curve" smooth="yes"/>
      <point x="535" y="383"/>
      <point x="484" y="496"/>
      <point x="376" y="547" type="curve"/>
      <point x="473" y="599"/>
      <point x="540" y="713"/>
      <point x="540" y="868" type="curve" smooth="yes"/>
      <point x="541" y="1207" type="line" smooth="yes"/>
      <point x="541" y="1343"/>
      <point x="594" y="1400"/>
      <point x="725" y="1404" type="curve"/>
      <point x="725" y="1552" type="line"/>
      <point x="472" y="1552"/>
      <point x="346" y="1440"/>
      <point x="346" y="1190" type="curve"/>
      <point x="347" y="1141"/>
      <point x="348" y="1090"/>
      <point x="348" y="1041" type="curve" smooth="yes"/>
      <point x="348" y="991"/>
      <point x="350" y="943"/>
      <point x="351" y="894" type="curve"/>
      <point x="351" y="739"/>
      <point x="302" y="631"/>
      <point x="161" y="618" type="curve"/>
      <point x="161" y="476" type="line"/>
      <point x="321" y="459"/>
      <point x="347" y="343"/>
      <point x="347" y="169" type="curve" smooth="yes"/>
      <point x="346" y="-138" type="line" smooth="yes"/>
      <point x="346" y="-367"/>
      <point x="507" y="-447"/>
    </contour>
  </outline>
</glyph>
<glyph name="braceright" format="1">
  <advance width="973"/>
  <unicode hex="007D"/>
  <outline>
    <contour>
      <point x="190" y="-326" type="line"/>
      <point x="408" y="-317"/>
      <point x="568" y="-237"/>
      <point x="569" y="-8" type="curve" smooth="yes"/>
      <point x="571" y="335" type="line" smooth="yes"/>
      <point x="572" y="455"/>
      <point x="634" y="524"/>
      <point x="753" y="536" type="curve"/>
      <point x="755" y="678" type="line"/>
      <point x="614" y="691"/>
      <point x="569" y="799"/>
      <point x="569" y="954" type="curve" smooth="yes"/>
      <point x="569" y="1190" type="line" smooth="yes"/>
      <point x="569" y="1440"/>
      <point x="442" y="1552"/>
      <point x="190" y="1552" type="curve"/>
      <point x="190" y="1404" type="line"/>
      <point x="322" y="1400"/>
      <point x="375" y="1343"/>
      <point x="375" y="1207" type="curve" smooth="yes"/>
      <point x="375" y="928" type="line" smooth="yes"/>
      <point x="375" y="772"/>
      <point x="440" y="659"/>
      <point x="540" y="607" type="curve"/>
      <point x="432" y="556"/>
      <point x="379" y="443"/>
      <point x="379" y="290" type="curve" smooth="yes"/>
      <point x="379" y="103" type="line" smooth="yes"/>
      <point x="379" y="-107"/>
      <point x="350" y="-178"/>
      <point x="190" y="-178" type="curve"/>
    </contour>
  </outline>
</glyph>
<glyph name="guillemotleft" format="1">
  <advance width="1999"/>
  <unicode hex="00AB"/>
  <outline>
    <contour>
      <point x="752" y="301" type="line"/>
      <point x="443" y="735" type="line"/>
      <point x="758" y="1174" type="line"/>
      <point x="928" y="1174" type="line"/>
      <point x="643" y="735" type="line"/>
      <point x="918" y="301" type="line"/>
    </contour>
    <contour>
      <point x="1149" y="301" type="line"/>
      <point x="860" y="735" type="line"/>
      <point x="1155" y="1174" type="line"/>
      <point x="1342" y="1174" type="line"/>
      <point x="1039" y="735" type="line"/>
      <point x="1334" y="301" type="line"/>
    </contour>
  </outline>
</glyph>
<glyph name="registered" format="1">
  <advance width="2036"/>
  <unicode hex="00AE"/>
  <outline>
    <contour>
      <point x="693" y="221" type="line"/>
      <point x="850" y="221" type="line"/>
      <point x="850" y="680" type="line"/>
      <point x="995" y="680" type="line"/>
      <point x="1060" y="634"/>
      <point x="1106" y="554"/>
      <point x="1150" y="469" type="curve" smooth="yes"/>
      <point x="1281" y="221" type="line"/>
      <point x="1459" y="221" type="line"/>
      <point x="1425" y="285"/>
      <point x="1394" y="340"/>
      <point x="1365" y="391" type="curve" smooth="yes"/>
      <point x="1301" y="505"/>
      <point x="1239" y="615"/>
      <point x="1158" y="700" type="curve"/>
      <point x="1312" y="722"/>
      <point x="1439" y="810"/>
      <point x="1439" y="998" type="curve" smooth="yes"/>
      <point x="1439" y="1095"/>
      <point x="1402" y="1170"/>
      <point x="1327" y="1222" type="curve" smooth="yes"/>
      <point x="1252" y="1274"/>
      <point x="1137" y="1299"/>
      <point x="982" y="1299" type="curve" smooth="yes"/>
      <point x="693" y="1299" type="line"/>
    </contour>
    <contour>
      <point x="1028" y="-138" type="curve" smooth="yes"/>
      <point x="1292" y="-138"/>
      <point x="1488" y="-22"/>
      <point x="1628" y="125" type="curve"/>
      <point x="1765" y="267"/>
      <point x="1894" y="469"/>
      <point x="1894" y="751" type="curve" smooth="yes"/>
      <point x="1894" y="832"/>
      <point x="1882" y="910"/>
      <point x="1860" y="985" type="curve" smooth="yes"/>
      <point x="1812" y="1144"/>
      <point x="1726" y="1274"/>
      <point x="1628" y="1377" type="curve" smooth="yes"/>
      <point x="1487" y="1524"/>
      <point x="1290" y="1642"/>
      <point x="1023" y="1642" type="curve" smooth="yes"/>
      <point x="759" y="1642"/>
      <point x="563" y="1526"/>
      <point x="421" y="1379" type="curve" smooth="yes"/>
      <point x="284" y="1237"/>
      <point x="154" y="1035"/>
      <point x="154" y="752" type="curve" smooth="yes"/>
      <point x="154" y="671"/>
      <point x="166" y="593"/>
      <point x="188" y="518" type="curve" smooth="yes"/>
      <point x="236" y="360"/>
      <point x="320" y="228"/>
      <point x="419" y="125" type="curve" smooth="yes"/>
      <point x="561" y="-22"/>
      <point x="761" y="-138"/>
    </contour>
    <contour>
      <point x="1028" y="0" type="curve" smooth="yes"/>
      <point x="808" y="0"/>
      <point x="631" y="92"/>
      <point x="512" y="217" type="curve" smooth="yes"/>
      <point x="396" y="337"/>
      <point x="303" y="518"/>
      <point x="303" y="754" type="curve" smooth="yes"/>
      <point x="303" y="987"/>
      <point x="396" y="1167"/>
      <point x="512" y="1288" type="curve" smooth="yes"/>
      <point x="630" y="1411"/>
      <point x="804" y="1504"/>
      <point x="1023" y="1504" type="curve" smooth="yes"/>
      <point x="1242" y="1504"/>
      <point x="1420" y="1410"/>
      <point x="1538" y="1286" type="curve" smooth="yes"/>
      <point x="1653" y="1166"/>
      <point x="1745" y="985"/>
      <point x="1745" y="751" type="curve" smooth="yes"/>
      <point x="1745" y="510"/>
      <point x="1655" y="337"/>
      <point x="1539" y="217" type="curve" smooth="yes"/>
      <point x="1421" y="93"/>
      <point x="1254" y="0"/>
    </contour>
    <contour>
      <point x="847" y="819" type="line"/>
      <point x="846" y="1158" type="line"/>
      <point x="978" y="1158" type="line" smooth="yes"/>
      <point x="1141" y="1158"/>
      <point x="1274" y="1157"/>
      <point x="1274" y="980" type="curve" smooth="yes"/>
      <point x="1274" y="821"/>
      <point x="1126" y="819"/>
      <point x="980" y="819" type="curve" smooth="yes"/>
    </contour>
  </outline>
</glyph>
<glyph name="macron" format="1">
  <advance width="1273"/>
  <unicode hex="00AF"/>
  <outline>
    <contour>
      <point x="300" y="1313" type="line"/>
      <point x="300" y="1470" type="line"/>
      <point x="954" y="1470" type="line"/>
      <point x="954" y="1313" type="line"/>
    </contour>
  </outline>
</glyph>
<glyph name="uni00B2" format="1">
  <advance width="2105"/>
  <unicode hex="00B2"/>
  <outline>
    <contour>
      <point x="509" y="1064" type="line"/>
      <point x="1150" y="1064" type="line"/>
      <point x="1150" y="1202" type="line"/>
      <point x="722" y="1202" type="line"/>
      <point x="830" y="1296"/>
      <point x="940" y="1386"/>
      <point x="1027" y="1491" type="curve" smooth="yes"/>
      <point x="1090" y="1568"/>
      <point x="1151" y="1655"/>
      <point x="1151" y="1778" type="curve" smooth="yes"/>
      <point x="1151" y="1819"/>
      <point x="1142" y="1855"/>
      <point x="1127" y="1889" type="curve"/>
      <point x="1081" y="1984"/>
      <point x="981" y="2045"/>
      <point x="842" y="2045" type="curve" smooth="yes"/>
      <point x="680" y="2045"/>
      <point x="568" y="1964"/>
      <point x="518" y="1846" type="curve"/>
      <point x="618" y="1754" type="line"/>
      <point x="657" y="1837"/>
      <point x="723" y="1908"/>
      <point x="835" y="1908" type="curve" smooth="yes"/>
      <point x="928" y="1908"/>
      <point x="1000" y="1865"/>
      <point x="1000" y="1777" type="curve" smooth="yes"/>
      <point x="1000" y="1744"/>
      <point x="988" y="1708"/>
      <point x="963" y="1668" type="curve" smooth="yes"/>
      <point x="938" y="1628"/>
      <point x="905" y="1584"/>
      <point x="862" y="1536" type="curve" smooth="yes"/>
      <point x="757" y="1421"/>
      <point x="634" y="1308"/>
      <point x="509" y="1194" type="curve"/>
    </contour>
  </outline>
</glyph>
<glyph name="acute" format="1">
  <advance width="1078"/>
  <unicode hex="00B4"/>
  <outline>
    <contour>
      <point x="318" y="2064" type="line"/>
      <point x="584" y="2440" type="line"/>
      <point x="903" y="2440" type="line"/>
      <point x="541" y="2064" type="line"/>
    </contour>
  </outline>
</glyph>
<glyph name="periodcentered" format="1">
  <advance width="791"/>
  <unicode hex="00B7"/>
  <outline>
    <contour>
      <point x="144" y="904" type="line"/>
      <point x="144" y="1151" type="line"/>
      <point x="399" y="1151" type="line"/>
      <point x="399" y="904" type="line"/>
    </contour>
  </outline>
</glyph>
<glyph name="uni00B9" format="1">
  <advance width="2105"/>
  <unicode hex="00B9"/>
  <outline>
    <contour>
      <point x="468" y="1064" type="line"/>
      <point x="896" y="1064" type="line"/>
      <point x="896" y="1201" type="line"/>
      <point x="753" y="1201" type="line"/>
      <point x="753" y="2030" type="line"/>
      <point x="629" y="2012" type="line"/>
      <point x="568" y="1976"/>
      <point x="510" y="1945"/>
      <point x="432" y="1920" type="curve"/>
      <point x="431" y="1767" type="line"/>
      <point x="490" y="1789"/>
      <point x="557" y="1819"/>
      <point x="609" y="1847" type="curve"/>
      <point x="609" y="1726" type="line" smooth="yes"/>
      <point x="609" y="1665"/>
      <point x="610" y="1608"/>
      <point x="610" y="1538" type="curve" smooth="yes"/>
      <point x="610" y="1204" type="line"/>
      <point x="468" y="1204" type="line"/>
    </contour>
  </outline>
</glyph>
<glyph name="guillemotright" format="1">
  <advance width="1996"/>
  <unicode hex="00BB"/>
  <outline>
    <contour>
      <point x="919" y="1174" type="line"/>
      <point x="1230" y="737" type="line"/>
      <point x="914" y="301" type="line"/>
      <point x="746" y="301" type="line"/>
      <point x="1028" y="737" type="line"/>
      <point x="754" y="1174" type="line"/>
    </contour>
    <contour>
      <point x="494" y="1174" type="line"/>
      <point x="786" y="737" type="line"/>
      <point x="489" y="301" type="line"/>
      <point x="301" y="301" type="line"/>
      <point x="606" y="737" type="line"/>
      <point x="308" y="1174" type="line"/>
    </contour>
  </outline>
</glyph>
<glyph name="onequarter" format="1">
  <advance width="4096"/>
  <unicode hex="00BC"/>
  <outline>
    <contour>
      <point x="-583" y="0" type="line"/>
      <point x="-406" y="0" type="line"/>
      <point x="441" y="1482" type="line"/>
      <point x="441" y="1413" type="line"/>
      <point x="493" y="1435"/>
      <point x="555" y="1465"/>
      <point x="602" y="1492" type="curve"/>
      <point x="602" y="1372" type="line" smooth="yes"/>
      <point x="602" y="1311"/>
      <point x="603" y="1253"/>
      <point x="603" y="1183" type="curve" smooth="yes"/>
      <point x="603" y="849" type="line"/>
      <point x="474" y="849" type="line"/>
      <point x="474" y="710" type="line"/>
      <point x="861" y="710" type="line"/>
      <point x="861" y="845" type="line"/>
      <point x="732" y="845" type="line"/>
      <point x="732" y="1675" type="line"/>
      <point x="620" y="1658" type="line"/>
      <point x="583" y="1632"/>
      <point x="545" y="1610"/>
      <point x="503" y="1590" type="curve"/>
      <point x="558" y="1686" type="line"/>
      <point x="400" y="1686" type="line"/>
    </contour>
    <contour>
      <point x="1826" y="722" type="line"/>
      <point x="1963" y="722" type="line"/>
      <point x="1963" y="943" type="line"/>
      <point x="2105" y="943" type="line"/>
      <point x="2094" y="1069" type="line"/>
      <point x="1966" y="1069" type="line"/>
      <point x="1966" y="1658" type="line"/>
      <point x="1814" y="1658" type="line"/>
      <point x="1426" y="1050" type="line"/>
      <point x="1426" y="943" type="line"/>
      <point x="1826" y="943" type="line"/>
    </contour>
    <contour>
      <point x="1573" y="1069" type="line"/>
      <point x="1826" y="1461" type="line"/>
      <point x="1826" y="1069" type="line"/>
    </contour>
  </outline>
</glyph>
<glyph name="onehalf" format="1">
  <advance width="4608"/>
  <unicode hex="00BD"/>
  <outline>
    <contour>
      <point x="488" y="710" type="line"/>
      <point x="1066" y="710" type="line"/>
      <point x="1066" y="848" type="line"/>
      <point x="680" y="848" type="line"/>
      <point x="777" y="942"/>
      <point x="876" y="1032"/>
      <point x="955" y="1136" type="curve" smooth="yes"/>
      <point x="1013" y="1213"/>
      <point x="1068" y="1301"/>
      <point x="1068" y="1424" type="curve" smooth="yes"/>
      <point x="1068" y="1465"/>
      <point x="1061" y="1501"/>
      <point x="1047" y="1535" type="curve"/>
      <point x="1005" y="1630"/>
      <point x="914" y="1691"/>
      <point x="789" y="1691" type="curve" smooth="yes"/>
      <point x="642" y="1691"/>
      <point x="542" y="1609"/>
      <point x="496" y="1491" type="curve"/>
      <point x="587" y="1399" type="line"/>
      <point x="622" y="1482"/>
      <point x="682" y="1554"/>
      <point x="783" y="1554" type="curve" smooth="yes"/>
      <point x="866" y="1554"/>
      <point x="930" y="1511"/>
      <point x="930" y="1422" type="curve" smooth="yes"/>
      <point x="930" y="1389"/>
      <point x="921" y="1353"/>
      <point x="898" y="1313" type="curve" smooth="yes"/>
      <point x="876" y="1273"/>
      <point x="846" y="1229"/>
      <point x="807" y="1181" type="curve" smooth="yes"/>
      <point x="712" y="1067"/>
      <point x="600" y="953"/>
      <point x="488" y="839" type="curve"/>
    </contour>
    <contour>
      <point x="1736" y="710" type="line"/>
      <point x="2146" y="710" type="line"/>
      <point x="2146" y="845" type="line"/>
      <point x="2002" y="845" type="line"/>
      <point x="2002" y="1675" type="line"/>
      <point x="1881" y="1658" type="line"/>
      <point x="1826" y="1621"/>
      <point x="1775" y="1590"/>
      <point x="1704" y="1565" type="curve"/>
      <point x="1702" y="1413" type="line"/>
      <point x="1755" y="1435"/>
      <point x="1817" y="1465"/>
      <point x="1864" y="1492" type="curve"/>
      <point x="1864" y="1372" type="line" smooth="yes"/>
      <point x="1864" y="1311"/>
      <point x="1865" y="1253"/>
      <point x="1865" y="1183" type="curve" smooth="yes"/>
      <point x="1865" y="849" type="line"/>
      <point x="1736" y="849" type="line"/>
    </contour>
    <contour>
      <point x="-583" y="0" type="line"/>
      <point x="-406" y="0" type="line"/>
      <point x="558" y="1686" type="line"/>
      <point x="400" y="1686" type="line"/>
    </contour>
  </outline>
</glyph>
<glyph name="multiply" format="1">
  <advance width="2532"/>
  <unicode hex="00D7"/>
  <outline>
    <contour>
      <point x="698" y="271" type="line"/>
      <point x="577" y="392" type="line"/>
      <point x="915" y="741" type="line"/>
      <point x="577" y="1090" type="line"/>
      <point x="698" y="1211" type="line"/>
      <point x="1025" y="862" type="line"/>
      <point x="1351" y="1211" type="line"/>
      <point x="1473" y="1089" type="line"/>
      <point x="1134" y="741" type="line"/>
      <point x="1473" y="393" type="line"/>
      <point x="1351" y="271" type="line"/>
      <point x="1025" y="619" type="line"/>
    </contour>
  </outline>
</glyph>
<glyph name="dotlessi" format="1">
  <advance width="1072"/>
  <unicode hex="0131"/>
  <outline>
    <contour>
      <point x="593" y="-9" type="curve" smooth="yes"/>
      <point x="651" y="-9"/>
      <point x="723" y="6"/>
      <point x="787" y="32" type="curve"/>
      <point x="764" y="243" type="line"/>
      <point x="718" y="226"/>
      <point x="670" y="216"/>
      <point x="636" y="216" type="curve" smooth="yes"/>
      <point x="548" y="216"/>
      <point x="495" y="288"/>
      <point x="495" y="410" type="curve" smooth="yes"/>
      <point x="495" y="1201" type="line"/>
      <point x="195" y="1201" type="line"/>
      <point x="195" y="323" type="line" smooth="yes"/>
      <point x="195" y="114"/>
      <point x="343" y="-9"/>
    </contour>
  </outline>
</glyph>
<glyph name="kgreenlandic" format="1">
  <advance width="1855"/>
  <unicode hex="0138"/>
  <outline>
    <contour>
      <point x="324" y="0" type="line"/>
      <point x="324" y="1205" type="line"/>
      <point x="517" y="1205" type="line"/>
      <point x="517" y="654" type="line"/>
      <point x="1011" y="1205" type="line"/>
      <point x="1271" y="1205" type="line"/>
      <point x="689" y="601" type="line"/>
      <point x="891" y="396"/>
      <point x="1091" y="204"/>
      <point x="1315" y="0" type="curve"/>
      <point x="1058" y="0" type="line"/>
      <point x="517" y="553" type="line"/>
      <point x="517" y="0" type="line"/>
    </contour>
  </outline>
</glyph>
<glyph name="circumflex" format="1">
  <advance width="1212"/>
  <unicode hex="02C6"/>
  <outline>
    <contour>
      <point x="324" y="2442" type="line"/>
      <point x="37" y="2061" type="line"/>
      <point x="255" y="2061" type="line"/>
      <point x="407" y="2245" type="line"/>
      <point x="552" y="2061" type="line"/>
      <point x="778" y="2061" type="line"/>
      <point x="490" y="2442" type="line"/>
    </contour>
  </outline>
</glyph>
<glyph name="breve" format="1">
  <advance width="1106"/>
  <unicode hex="02D8"/>
  <outline>
    <contour>
      <point x="395" y="2145" type="curve" smooth="yes"/>
      <point x="200" y="2145"/>
      <point x="82" y="2235"/>
      <point x="67" y="2423" type="curve"/>
      <point x="169" y="2423" type="line"/>
      <point x="186" y="2320"/>
      <point x="272" y="2271"/>
      <point x="387" y="2271" type="curve" smooth="yes"/>
      <point x="502" y="2271"/>
      <point x="594" y="2324"/>
      <point x="617" y="2423" type="curve"/>
      <point x="719" y="2423" type="line"/>
      <point x="704" y="2242"/>
      <point x="585" y="2145"/>
    </contour>
  </outline>
</glyph>
<glyph name="dotaccent" format="1">
  <advance width="932"/>
  <unicode hex="02D9"/>
  <outline>
    <contour>
      <point x="334" y="2195" type="line"/>
      <point x="334" y="2386" type="line"/>
      <point x="523" y="2386" type="line"/>
      <point x="523" y="2195" type="line"/>
    </contour>
  </outline>
</glyph>
<glyph name="ogonek" format="1">
  <advance width="904"/>
  <unicode hex="02DB"/>
  <outline>
    <contour>
      <point x="351" y="-687" type="curve" smooth="yes"/>
      <point x="426" y="-687"/>
      <point x="505" y="-675"/>
      <point x="558" y="-653" type="curve"/>
      <point x="558" y="-523" type="line"/>
      <point x="505" y="-544"/>
      <point x="453" y="-559"/>
      <point x="377" y="-559" type="curve" smooth="yes"/>
      <point x="317" y="-559"/>
      <point x="260" y="-523"/>
      <point x="260" y="-463" type="curve" smooth="yes"/>
      <point x="260" y="-444"/>
      <point x="265" y="-425"/>
      <point x="277" y="-406" type="curve" smooth="yes"/>
      <point x="327" y="-330"/>
      <point x="417" y="-279"/>
      <point x="498" y="-229" type="curve"/>
      <point x="347" y="-215" type="line"/>
      <point x="283" y="-246"/>
      <point x="219" y="-287"/>
      <point x="173" y="-334" type="curve" smooth="yes"/>
      <point x="134" y="-373"/>
      <point x="94" y="-425"/>
      <point x="94" y="-494" type="curve" smooth="yes"/>
      <point x="94" y="-525"/>
      <point x="102" y="-553"/>
      <point x="114" y="-576" type="curve" smooth="yes"/>
      <point x="154" y="-648"/>
      <point x="240" y="-687"/>
    </contour>
  </outline>
</glyph>
<glyph name="tilde" format="1">
  <advance width="1151"/>
  <unicode hex="02DC"/>
  <outline>
    <contour>
      <point x="35" y="2119" type="curve"/>
      <point x="158" y="2119" type="line"/>
      <point x="167" y="2185"/>
      <point x="201" y="2219"/>
      <point x="265" y="2219" type="curve" smooth="yes"/>
      <point x="368" y="2219"/>
      <point x="432" y="2139"/>
      <point x="536" y="2139" type="curve" smooth="yes"/>
      <point x="681" y="2139"/>
      <point x="750" y="2259"/>
      <point x="765" y="2392" type="curve"/>
      <point x="638" y="2392" type="line"/>
      <point x="630" y="2332"/>
      <point x="598" y="2286"/>
      <point x="536" y="2286" type="curve" smooth="yes"/>
      <point x="515" y="2286"/>
      <point x="492" y="2290"/>
      <point x="471" y="2299" type="curve" smooth="yes"/>
      <point x="410" y="2323"/>
      <point x="350" y="2366"/>
      <point x="268" y="2366" type="curve" smooth="yes"/>
      <point x="123" y="2366"/>
      <point x="46" y="2255"/>
    </contour>
  </outline>
</glyph>
<glyph name="emdash" format="1">
  <advance width="3633"/>
  <unicode hex="2014"/>
  <outline>
    <contour>
      <point x="5" y="861" type="line"/>
      <point x="5" y="1022" type="line"/>
      <point x="2345" y="1022" type="line"/>
      <point x="2345" y="861" type="line"/>
    </contour>
  </outline>
</glyph>
<glyph name="quoteright" format="1">
  <advance width="984"/>
  <unicode hex="2019"/>
  <outline>
    <contour>
      <point x="257" y="1802" type="line"/>
      <point x="380" y="2319" type="line"/>
      <point x="592" y="2319" type="line"/>
      <point x="412" y="1802" type="line"/>
    </contour>
  </outline>
</glyph>
<glyph name="dagger" format="1">
  <advance width="1769"/>
  <unicode hex="2020"/>
  <outline>
    <contour>
      <point x="568" y="199" type="line"/>
      <point x="568" y="1163" type="line"/>
      <point x="198" y="1163" type="line"/>
      <point x="198" y="1318" type="line"/>
      <point x="568" y="1318" type="line"/>
      <point x="568" y="1770" type="line"/>
      <point x="724" y="1770" type="line"/>
      <point x="724" y="1318" type="line"/>
      <point x="1113" y="1318" type="line"/>
      <point x="1113" y="1163" type="line"/>
      <point x="710" y="1163" type="line"/>
      <point x="710" y="199" type="line"/>
    </contour>
  </outline>
</glyph>
<glyph name="guilsinglright" format="1">
  <advance width="1140"/>
  <unicode hex="203A"/>
  <outline>
    <contour>
      <point x="383" y="1174" type="line"/>
      <point x="701" y="737" type="line"/>
      <point x="376" y="301" type="line"/>
      <point x="191" y="301" type="line"/>
      <point x="499" y="737" type="line"/>
      <point x="201" y="1174" type="line"/>
    </contour>
  </outline>
</glyph>
<glyph name="uni2074" format="1">
  <advance width="1564"/>
  <unicode hex="2074"/>
  <outline>
    <contour>
      <point x="396" y="1084" type="line"/>
      <point x="396" y="1305" type="line"/>
      <point x="-29" y="1305" type="line"/>
      <point x="-29" y="1411" type="line"/>
      <point x="383" y="2019" type="line"/>
      <point x="536" y="2019" type="line"/>
      <point x="536" y="1430" type="line"/>
      <point x="663" y="1430" type="line"/>
      <point x="675" y="1305" type="line"/>
      <point x="533" y="1305" type="line"/>
      <point x="533" y="1084" type="line"/>
    </contour>
    <contour>
      <point x="135" y="1430" type="line"/>
      <point x="396" y="1430" type="line"/>
      <point x="396" y="1822" type="line"/>
    </contour>
  </outline>
</glyph>
<glyph name="integral" format="1">
  <advance width="1219"/>
  <unicode hex="222B"/>
  <outline>
    <contour>
      <point x="387" y="-703" type="curve" smooth="yes"/>
      <point x="318" y="-703"/>
      <point x="284" y="-693"/>
      <point x="228" y="-678" type="curve"/>
      <point x="225" y="-526" type="line"/>
      <point x="255" y="-538"/>
      <point x="310" y="-544"/>
      <point x="354" y="-544" type="curve" smooth="yes"/>
      <point x="510" y="-544"/>
      <point x="536" y="-449"/>
      <point x="536" y="-289" type="curve" smooth="yes"/>
      <point x="536" y="1239" type="line" smooth="yes"/>
      <point x="536" y="1500"/>
      <point x="620" y="1680"/>
      <point x="868" y="1680" type="curve" smooth="yes"/>
      <point x="932" y="1680"/>
      <point x="976" y="1668"/>
      <point x="1028" y="1656" type="curve"/>
      <point x="1031" y="1505" type="line"/>
      <point x="1000" y="1517"/>
      <point x="945" y="1522"/>
      <point x="902" y="1522" type="curve" smooth="yes"/>
      <point x="746" y="1522"/>
      <point x="717" y="1428"/>
      <point x="717" y="1268" type="curve" smooth="yes"/>
      <point x="717" y="-261" type="line" smooth="yes"/>
      <point x="717" y="-522"/>
      <point x="636" y="-703"/>
    </contour>
  </outline>
</glyph>
<glyph name="k.alt" format="1">
  <advance width="1848"/>
  <outline>
    <contour>
      <point x="324" y="0" type="line"/>
      <point x="471" y="0" type="line"/>
      <point x="577" y="174"/>
      <point x="682" y="347"/>
      <point x="789" y="521" type="curve"/>
      <point x="1088" y="0" type="line"/>
      <point x="1300" y="0" type="line"/>
      <point x="886" y="680" type="line"/>
      <point x="993" y="855"/>
      <point x="1102" y="1030"/>
      <point x="1220" y="1205" type="curve"/>
      <point x="1017" y="1205" type="line"/>
      <point x="513" y="362" type="line"/>
      <point x="513" y="1791" type="line"/>
      <point x="324" y="1791" type="line"/>
    </contour>
  </outline>
</glyph>
<glyph name="nine.alt" format="1">
  <advance width="2033"/>
  <outline>
    <contour>
      <point x="640" y="-40" type="curve" smooth="yes"/>
      <point x="738" y="-40"/>
      <point x="826" y="-18"/>
      <point x="902" y="27" type="curve"/>
      <point x="1145" y="165"/>
      <point x="1274" y="474"/>
      <point x="1274" y="876" type="curve" smooth="yes"/>
      <point x="1274" y="1008"/>
      <point x="1261" y="1125"/>
      <point x="1234" y="1226" type="curve" smooth="yes"/>
      <point x="1164" y="1492"/>
      <point x="1007" y="1692"/>
      <point x="712" y="1692" type="curve" smooth="yes"/>
      <point x="633" y="1692"/>
      <point x="559" y="1678"/>
      <point x="494" y="1650" type="curve" smooth="yes"/>
      <point x="309" y="1573"/>
      <point x="165" y="1405"/>
      <point x="165" y="1142" type="curve" smooth="yes"/>
      <point x="165" y="1065"/>
      <point x="178" y="992"/>
      <point x="203" y="928" type="curve" smooth="yes"/>
      <point x="276" y="741"/>
      <point x="441" y="612"/>
      <point x="673" y="612" type="curve" smooth="yes"/>
      <point x="864" y="612"/>
      <point x="992" y="681"/>
      <point x="1068" y="817" type="curve"/>
      <point x="1068" y="789" type="line"/>
      <point x="1065" y="606"/>
      <point x="1025" y="440"/>
      <point x="957" y="325" type="curve" smooth="yes"/>
      <point x="894" y="217"/>
      <point x="795" y="126"/>
      <point x="644" y="126" type="curve" smooth="yes"/>
      <point x="520" y="126"/>
      <point x="422" y="171"/>
      <point x="339" y="261" type="curve"/>
      <point x="277" y="129" type="line"/>
      <point x="357" y="27"/>
      <point x="478" y="-40"/>
    </contour>
    <contour>
      <point x="702" y="777" type="curve" smooth="yes"/>
      <point x="491" y="777"/>
      <point x="372" y="917"/>
      <point x="372" y="1147" type="curve" smooth="yes"/>
      <point x="372" y="1202"/>
      <point x="380" y="1253"/>
      <point x="398" y="1299" type="curve"/>
      <point x="443" y="1429"/>
      <point x="543" y="1527"/>
      <point x="703" y="1527" type="curve" smooth="yes"/>
      <point x="759" y="1527"/>
      <point x="809" y="1515"/>
      <point x="852" y="1493" type="curve" smooth="yes"/>
      <point x="966" y="1433"/>
      <point x="1056" y="1308"/>
      <point x="1056" y="1127" type="curve" smooth="yes"/>
      <point x="1056" y="1073"/>
      <point x="1048" y="1024"/>
      <point x="1028" y="981" type="curve"/>
      <point x="976" y="860"/>
      <point x="861" y="777"/>
    </contour>
  </outline>
</glyph>
